<svg xmlns="http://www.w3.org/2000/svg" width="20" height="20" viewBox="0 0 20 20" fill="none">
  <path d="M16.875 10C16.875 13.7969 13.797 16.875 10 16.875C6.203 16.875 3.125 13.7969 3.125 10C3.125 6.20308 6.203 3.125 10 3.125C13.797 3.125 16.875 6.20308 16.875 10Z" fill="black" fill-opacity="0.1"/>
  <path d="M10 10.625H14.375C14.7202 10.625 15 10.3452 15 10C15 9.65482 14.7202 9.375 14.375 9.375H10.625V5.625C10.625 5.27982 10.3452 5 10 5C9.65482 5 9.375 5.27982 9.375 5.625V10C9.375 10.3452 9.65482 10.625 10 10.625Z" fill="#1C1C1C"/>
  <path fill-rule="evenodd" clip-rule="evenodd" d="M10 2.5C10 2.5 11.5255 2.5 12.9195 3.08964C12.9195 3.08964 14.2656 3.65897 15.3033 4.6967C15.3033 4.6967 16.341 5.73443 16.9104 7.08047C16.9104 7.08047 17.5 8.47454 17.5 10C17.5 10 17.5 11.5255 16.9104 12.9195C16.9104 12.9195 16.341 14.2656 15.3033 15.3033C15.3033 15.3033 14.2656 16.341 12.9195 16.9104C12.9195 16.9104 11.5255 17.5 10 17.5C10 17.5 8.47455 17.5 7.08047 16.9104C7.08047 16.9104 5.73442 16.341 4.6967 15.3033C4.6967 15.3033 3.65897 14.2656 3.08964 12.9195C3.08964 12.9195 2.5 11.5255 2.5 10C2.5 10 2.5 8.47454 3.08964 7.08047C3.08964 7.08047 3.65897 5.73443 4.6967 4.6967C4.6967 4.6967 5.73443 3.65897 7.08047 3.08964C7.08047 3.08964 8.47454 2.5 10 2.5ZM10 3.75C10 3.75 8.72803 3.75 7.56741 4.2409C7.56741 4.2409 6.44591 4.71525 5.58058 5.58058C5.58058 5.58058 4.71525 6.44591 4.2409 7.56741C4.2409 7.56741 3.75 8.72802 3.75 10C3.75 10 3.75 11.272 4.2409 12.4326C4.2409 12.4326 4.71525 13.5541 5.58058 14.4194C5.58058 14.4194 6.44591 15.2847 7.56741 15.7591C7.56741 15.7591 8.72803 16.25 10 16.25C10 16.25 11.272 16.25 12.4326 15.7591C12.4326 15.7591 13.5541 15.2847 14.4194 14.4194C14.4194 14.4194 15.2847 13.5541 15.7591 12.4326C15.7591 12.4326 16.25 11.272 16.25 10C16.25 10 16.25 8.72803 15.7591 7.56741C15.7591 7.56741 15.2847 6.44591 14.4194 5.58058C14.4194 5.58058 13.5541 4.71525 12.4326 4.2409C12.4326 4.2409 11.272 3.75 10 3.75Z" fill="#1C1C1C"/>
  <path d="M14.8628 2.48889L17.5112 5.13725C17.6284 5.25446 17.7874 5.32031 17.9531 5.32031C18.1189 5.32031 18.2779 5.25446 18.3951 5.13725C18.5123 5.02004 18.5781 4.86107 18.5781 4.69531C18.5781 4.52955 18.5123 4.37058 18.3951 4.25337L18.3949 4.25317L15.7467 1.60501C15.6294 1.48772 15.4704 1.42188 15.3047 1.42188C15.1389 1.42188 14.98 1.48772 14.8627 1.60493C14.7455 1.72214 14.6797 1.88111 14.6797 2.04688C14.6797 2.21264 14.7455 2.37161 14.8628 2.48889Z" fill="#1C1C1C"/>
  <path d="M5.13702 2.48905L5.13725 2.48882C5.25446 2.37161 5.32031 2.21264 5.32031 2.04688C5.32031 1.88111 5.25446 1.72214 5.13725 1.60493C5.12201 1.58969 5.10599 1.57524 5.08925 1.56165C4.97787 1.47123 4.83878 1.42188 4.69531 1.42188C4.52955 1.42188 4.37058 1.48772 4.25337 1.60493L1.60493 4.25337C1.48772 4.37058 1.42188 4.52955 1.42188 4.69531C1.42188 4.86107 1.48772 5.02004 1.60493 5.13725C1.72214 5.25446 1.88111 5.32031 2.04688 5.32031C2.21264 5.32031 2.37161 5.25446 2.48882 5.13725L2.48905 5.13702L5.13702 2.48905Z" fill="#1C1C1C"/>
</svg>