<svg xmlns="http://www.w3.org/2000/svg" width="16" height="16" viewBox="0 0 16 16" fill="none">
  <path d="M4.10975 1.99125L1.99119 4.10981C1.89742 4.20358 1.77006 4.25644 1.63745 4.25645C1.50484 4.25645 1.37767 4.20377 1.2839 4.11C1.19013 4.01623 1.13745 3.88905 1.13745 3.75645C1.13745 3.62384 1.19013 3.49666 1.2839 3.40289L3.40265 1.28414C3.49642 1.19037 3.62359 1.1377 3.7562 1.1377C3.87097 1.1377 3.98225 1.17718 4.07135 1.24952C4.08474 1.26039 4.09756 1.27195 4.10975 1.28414C4.20352 1.37791 4.2562 1.50509 4.2562 1.6377C4.2562 1.7703 4.20352 1.89748 4.10975 1.99125Z" fill="url(#paint0_linear_204_1690)"/>
  <path d="M11.8902 1.99131L14.0089 4.11C14.1027 4.20377 14.2299 4.25645 14.3625 4.25645C14.4951 4.25645 14.6222 4.20377 14.716 4.11C14.8098 4.01623 14.8625 3.88905 14.8625 3.75644C14.8625 3.62384 14.8098 3.49666 14.716 3.40289L12.5973 1.2842C12.5035 1.19037 12.3763 1.1377 12.2437 1.1377C12.1111 1.1377 11.9839 1.19037 11.8902 1.28414C11.7964 1.37791 11.7437 1.50509 11.7437 1.6377C11.7437 1.7703 11.7964 1.89748 11.8902 1.99131Z" fill="url(#paint1_linear_204_1690)"/>
  <path d="M11.4999 8.50024H7.99994C7.7238 8.50024 7.49994 8.27639 7.49994 8.00024V4.50024C7.49994 4.2241 7.7238 4.00024 7.99994 4.00024C8.27608 4.00024 8.49994 4.2241 8.49994 4.50024V7.50024H11.4999C11.7761 7.50024 11.9999 7.7241 11.9999 8.00024C11.9999 8.27639 11.7761 8.50024 11.4999 8.50024Z" fill="url(#paint2_linear_204_1690)"/>
  <path fill-rule="evenodd" clip-rule="evenodd" d="M10.3356 2.47196C9.2203 2.00024 7.99994 2.00024 7.99994 2.00024C6.77957 2.00024 5.66432 2.47196 5.66432 2.47196C4.58748 2.92742 3.7573 3.7576 3.7573 3.7576C2.92712 4.58778 2.47165 5.66462 2.47165 5.66462C1.99994 6.77988 1.99994 8.00024 1.99994 8.00024C1.99994 9.22061 2.47165 10.3359 2.47165 10.3359C2.92712 11.4127 3.7573 12.2429 3.7573 12.2429C4.58748 13.0731 5.66431 13.5285 5.66431 13.5285C6.77958 14.0002 7.99994 14.0002 7.99994 14.0002C9.2203 14.0002 10.3356 13.5285 10.3356 13.5285C11.4124 13.0731 12.2426 12.2429 12.2426 12.2429C13.0728 11.4127 13.5282 10.3359 13.5282 10.3359C13.9999 9.22061 13.9999 8.00024 13.9999 8.00024C13.9999 6.77988 13.5282 5.66462 13.5282 5.66462C13.0728 4.58779 12.2426 3.7576 12.2426 3.7576C11.4124 2.92742 10.3356 2.47196 10.3356 2.47196ZM6.05387 3.39296C6.98236 3.00024 7.99994 3.00024 7.99994 3.00024C9.01752 3.00024 9.94601 3.39296 9.94601 3.39296C10.8432 3.77245 11.5355 4.46471 11.5355 4.46471C12.2277 5.15697 12.6072 6.05417 12.6072 6.05417C12.9999 6.98267 12.9999 8.00024 12.9999 8.00024C12.9999 9.01782 12.6072 9.94632 12.6072 9.94632C12.2277 10.8435 11.5355 11.5358 11.5355 11.5358C10.8432 12.228 9.94601 12.6075 9.94601 12.6075C9.01752 13.0002 7.99994 13.0002 7.99994 13.0002C6.98236 13.0002 6.05387 12.6075 6.05387 12.6075C5.15667 12.228 4.46441 11.5358 4.46441 11.5358C3.77214 10.8435 3.39266 9.94632 3.39266 9.94632C2.99994 9.01782 2.99994 8.00024 2.99994 8.00024C2.99994 6.98266 3.39266 6.05417 3.39266 6.05417C3.77214 5.15697 4.46441 4.46471 4.46441 4.46471C5.15667 3.77245 6.05387 3.39296 6.05387 3.39296Z" fill="url(#paint3_linear_204_1690)"/>
  <defs>
    <linearGradient id="paint0_linear_204_1690" x1="3.36778" y1="3.26" x2="13.6274" y2="13.8301" gradientUnits="userSpaceOnUse">
      <stop stop-color="#18A1CC"/>
      <stop offset="1" stop-color="#92D1FF"/>
    </linearGradient>
    <linearGradient id="paint1_linear_204_1690" x1="3.36778" y1="3.26" x2="13.6274" y2="13.8301" gradientUnits="userSpaceOnUse">
      <stop stop-color="#18A1CC"/>
      <stop offset="1" stop-color="#92D1FF"/>
    </linearGradient>
    <linearGradient id="paint2_linear_204_1690" x1="3.36778" y1="3.26" x2="13.6274" y2="13.8301" gradientUnits="userSpaceOnUse">
      <stop stop-color="#18A1CC"/>
      <stop offset="1" stop-color="#92D1FF"/>
    </linearGradient>
    <linearGradient id="paint3_linear_204_1690" x1="3.36778" y1="3.26" x2="13.6274" y2="13.8301" gradientUnits="userSpaceOnUse">
      <stop stop-color="#18A1CC"/>
      <stop offset="1" stop-color="#92D1FF"/>
    </linearGradient>
  </defs>
</svg>