<svg xmlns="http://www.w3.org/2000/svg" width="19" height="18" viewBox="0 0 19 18" fill="none">
  <path fill-rule="evenodd" clip-rule="evenodd" d="M0.5 5.25C0.5 4.83579 0.835786 4.5 1.25 4.5H5V0.75C5 0.335786 5.33579 0 5.75 0H17.75C18.1642 0 18.5 0.335786 18.5 0.75V12.75C18.5 13.1642 18.1642 13.5 17.75 13.5H14V17.25C14 17.6642 13.6642 18 13.25 18H1.25C0.835786 18 0.5 17.6642 0.5 17.25V5.25ZM14 5.25C14 4.83579 13.6642 4.5 13.25 4.5H6.5V1.5H17V12H14V5.25ZM2 6V16.5H12.5V6H2Z" fill="#91D5FF"/>
</svg>