<svg xmlns="http://www.w3.org/2000/svg" width="21" height="20" viewBox="0 0 21 20" fill="none">
  <path fill-rule="evenodd" clip-rule="evenodd" d="M2.11612 3.49112C2.11612 3.49112 2.48223 3.125 3 3.125H6.75C7.09518 3.125 7.375 3.40482 7.375 3.75V11.875C7.375 12.2202 7.09518 12.5 6.75 12.5H3C3 12.5 2.48223 12.5 2.11612 12.1339C2.11612 12.1339 1.75 11.7678 1.75 11.25V4.375C1.75 4.375 1.75 3.85723 2.11612 3.49112ZM3 4.375V11.25H6.125V4.375H3Z" fill="#91D5FF"/>
  <path d="M16.2734 3.125H6.75C6.40482 3.125 6.125 3.40482 6.125 3.75C6.125 4.09518 6.40482 4.375 6.75 4.375H16.2734C16.5059 4.37609 16.6821 4.5322 16.6821 4.5322C16.8583 4.68832 16.8877 4.92187 16.8877 4.92187L17.8251 12.4213C17.8434 12.5588 17.8047 12.6866 17.8047 12.6866C17.766 12.8145 17.6778 12.915 17.6778 12.915C17.5897 13.0154 17.4679 13.0704 17.4679 13.0704C17.3461 13.1253 17.2125 13.125 17.2125 13.125L12.375 13.125C12.0298 13.125 11.75 13.4048 11.75 13.75V15.625C11.75 16.4017 11.2008 16.9508 11.2008 16.9508C10.7872 17.3644 10.2445 17.4665 10.2445 17.4665L7.30919 11.5958C7.20332 11.3841 6.98673 11.25 6.75 11.25C6.74233 11.25 6.73467 11.2501 6.72701 11.2504C6.6378 11.2537 6.55033 11.2761 6.47049 11.316C6.32223 11.3901 6.20949 11.5201 6.15707 11.6774C6.13583 11.7411 6.125 11.8078 6.125 11.875L6.12514 11.8883C6.12711 11.9808 6.14959 12.0717 6.19098 12.1545L9.31598 18.4045C9.42185 18.6162 9.63827 18.75 9.875 18.75C11.1694 18.75 12.0847 17.8347 12.0847 17.8347C13 16.9194 13 15.625 13 15.625V14.375L17.2094 14.375C17.6137 14.376 17.9821 14.2097 17.9821 14.2097C18.3506 14.0434 18.6173 13.7396 18.6173 13.7396C18.884 13.4358 19.0011 13.0488 19.0011 13.0488C19.1182 12.6619 19.0655 12.2662 19.0655 12.2662L18.1279 4.76563C18.0396 4.06498 17.5111 3.59664 17.5111 3.59664C16.9825 3.1283 16.2734 3.125 16.2734 3.125Z" fill="#91D5FF"/>
</svg>