<svg xmlns="http://www.w3.org/2000/svg" width="21" height="20" viewBox="0 0 21 20" fill="none">
  <path fill-rule="evenodd" clip-rule="evenodd" d="M2.11612 7.86612C2.11612 7.86612 2.48223 7.5 3 7.5H6.75C7.09518 7.5 7.375 7.77982 7.375 8.125V16.25C7.375 16.5952 7.09518 16.875 6.75 16.875H3C3 16.875 2.48223 16.875 2.11612 16.5089C2.11612 16.5089 1.75 16.1428 1.75 15.625V8.75C1.75 8.75 1.75 8.23223 2.11612 7.86612ZM3 8.75V15.625H6.125V8.75H3Z" fill="#91D5FF"/>
  <path d="M16.2734 15.625H6.75C6.40482 15.625 6.125 15.9048 6.125 16.25C6.125 16.5952 6.40482 16.875 6.75 16.875H16.2734C16.9825 16.8717 17.5111 16.4034 17.5111 16.4034C18.0396 15.935 18.1279 15.2344 18.1279 15.2344L19.0655 7.73377C19.1182 7.33808 19.0011 6.95116 19.0011 6.95116C18.884 6.56424 18.6173 6.26043 18.6173 6.26043C18.3506 5.95661 17.9821 5.79031 17.9821 5.79031C17.6137 5.624 17.2094 5.625 17.2094 5.625L13 5.625V4.375C13 3.08058 12.0847 2.16529 12.0847 2.16529C11.1694 1.25 9.875 1.25 9.875 1.25C9.63827 1.25 9.42185 1.38375 9.31598 1.59549L6.19116 7.84514C6.14777 7.93193 6.125 8.02797 6.125 8.125L6.125 8.12726C6.12524 8.19368 6.13607 8.25963 6.15707 8.32264C6.20949 8.4799 6.32223 8.60989 6.47049 8.68402C6.55728 8.72741 6.65297 8.75 6.75 8.75L6.75847 8.74994C6.99213 8.74678 7.20451 8.61352 7.30902 8.40451L10.2445 2.53346C10.7872 2.63555 11.2008 3.04917 11.2008 3.04917C11.75 3.59835 11.75 4.375 11.75 4.375V6.25C11.75 6.59518 12.0298 6.875 12.375 6.875L17.2125 6.875C17.3461 6.87467 17.4679 6.92964 17.4679 6.92964C17.5897 6.98461 17.6779 7.08503 17.6779 7.08503C17.766 7.18546 17.8047 7.31335 17.8047 7.31335C17.8434 7.44125 17.8251 7.57873 17.8251 7.57873L16.8877 15.0781C16.8583 15.3117 16.6821 15.4678 16.6821 15.4678C16.5059 15.6239 16.2734 15.625 16.2734 15.625Z" fill="#91D5FF"/>
</svg>