<svg width="32" height="32" viewBox="0 0 32 32" fill="none" xmlns="http://www.w3.org/2000/svg">
<rect width="32" height="32" rx="16" fill="black"/>
<path d="M12.1619 10.8182H13.6932V18.0369C13.6932 18.6899 13.5639 19.2483 13.3054 19.7124C13.0502 20.1764 12.6906 20.531 12.2266 20.7763C11.7625 21.0182 11.219 21.1392 10.5959 21.1392C10.0225 21.1392 9.5071 21.0348 9.04972 20.826C8.59564 20.6172 8.23603 20.3139 7.97088 19.9162C7.70904 19.5152 7.57812 19.0279 7.57812 18.4545H9.1044C9.1044 18.7363 9.16903 18.9799 9.2983 19.1854C9.43087 19.3909 9.61151 19.5516 9.8402 19.6676C10.0722 19.7803 10.3374 19.8366 10.6357 19.8366C10.9605 19.8366 11.2356 19.7687 11.4609 19.6328C11.6896 19.4936 11.8636 19.2898 11.983 19.0213C12.1023 18.7528 12.1619 18.4247 12.1619 18.0369V10.8182ZM19.2253 21H15.9292V10.8182H19.3297C20.3274 10.8182 21.1841 11.022 21.9 11.4297C22.6159 11.834 23.1645 12.4157 23.5456 13.1747C23.9301 13.9304 24.1223 14.8369 24.1223 15.8942C24.1223 16.9548 23.9284 17.8662 23.5407 18.6286C23.1562 19.3909 22.5994 19.9775 21.8702 20.3885C21.141 20.7962 20.2594 21 19.2253 21ZM17.4654 19.6577H19.1408C19.9164 19.6577 20.561 19.5118 21.0748 19.2202C21.5885 18.9252 21.973 18.4993 22.2282 17.9425C22.4834 17.3823 22.611 16.6996 22.611 15.8942C22.611 15.0954 22.4834 14.4176 22.2282 13.8608C21.9763 13.304 21.6001 12.8814 21.0996 12.593C20.5991 12.3047 19.9777 12.1605 19.2353 12.1605H17.4654V19.6577Z" fill="white"/>
</svg>
