<svg width="48" height="49" viewBox="0 0 48 49" fill="none" xmlns="http://www.w3.org/2000/svg">
<rect y="0.5" width="48" height="48" rx="24" fill="#F8F8F8"/>
<rect x="10" y="10.5" width="28" height="28" rx="4" fill="black"/>
<path d="M20.1619 19.3182H21.6932V26.5369C21.6932 27.1899 21.5639 27.7483 21.3054 28.2124C21.0502 28.6764 20.6906 29.031 20.2266 29.2763C19.7625 29.5182 19.219 29.6392 18.5959 29.6392C18.0225 29.6392 17.5071 29.5348 17.0497 29.326C16.5956 29.1172 16.236 28.8139 15.9709 28.4162C15.709 28.0152 15.5781 27.5279 15.5781 26.9545H17.1044C17.1044 27.2363 17.169 27.4799 17.2983 27.6854C17.4309 27.8909 17.6115 28.0516 17.8402 28.1676C18.0722 28.2803 18.3374 28.3366 18.6357 28.3366C18.9605 28.3366 19.2356 28.2687 19.4609 28.1328C19.6896 27.9936 19.8636 27.7898 19.983 27.5213C20.1023 27.2528 20.1619 26.9247 20.1619 26.5369V19.3182ZM27.2253 29.5H23.9292V19.3182H27.3297C28.3274 19.3182 29.1841 19.522 29.9 19.9297C30.6159 20.334 31.1645 20.9157 31.5456 21.6747C31.9301 22.4304 32.1223 23.3369 32.1223 24.3942C32.1223 25.4548 31.9284 26.3662 31.5407 27.1286C31.1562 27.8909 30.5994 28.4775 29.8702 28.8885C29.141 29.2962 28.2594 29.5 27.2253 29.5ZM25.4654 28.1577H27.1408C27.9164 28.1577 28.561 28.0118 29.0748 27.7202C29.5885 27.4252 29.973 26.9993 30.2282 26.4425C30.4834 25.8823 30.611 25.1996 30.611 24.3942C30.611 23.5954 30.4834 22.9176 30.2282 22.3608C29.9763 21.804 29.6001 21.3814 29.0996 21.093C28.5991 20.8047 27.9777 20.6605 27.2353 20.6605H25.4654V28.1577Z" fill="white"/>
</svg>
