<svg xmlns="http://www.w3.org/2000/svg" width="16" height="16" viewBox="0 0 16 16" fill="none">
  <path d="M7.95291 16C5.7528 16 3.87728 15.2206 2.32636 13.6618C0.775454 12.1031 0 10.218 0 8.00676C0 5.79549 0.775454 3.90822 2.32636 2.34493C3.87728 0.781642 5.7528 0 7.95291 0C9.3555 0 10.5892 0.284119 11.6541 0.852358C12.719 1.42061 13.6377 2.21023 14.4104 3.22121V0.798795C14.4104 0.569841 14.4837 0.379466 14.6303 0.227669C14.7768 0.0758893 14.9685 0 15.2052 0C15.433 0 15.6224 0.0758893 15.7735 0.227669C15.9245 0.379466 16 0.569841 16 0.798795V5.62908C16 5.8995 15.9079 6.12502 15.7237 6.30565C15.5395 6.4863 15.3128 6.57662 15.0438 6.57662H10.2244C10.0004 6.57662 9.81422 6.50073 9.66578 6.34893C9.51733 6.19715 9.44311 6.00677 9.44311 5.7778C9.44311 5.55268 9.51862 5.36552 9.66963 5.21632C9.82066 5.06712 10.0101 4.99253 10.2379 4.99253H13.388C12.7761 4.07169 12.0195 3.32749 11.1184 2.75994C10.2173 2.19238 9.16216 1.90861 7.95291 1.90861C6.25919 1.90861 4.82453 2.49939 3.64893 3.68095C2.47333 4.86252 1.88553 6.30445 1.88553 8.00676C1.88553 9.70907 2.47333 11.151 3.64893 12.3326C4.82453 13.5141 6.25919 14.1049 7.95291 14.1049C9.07124 14.1049 10.1192 13.817 11.0968 13.2411C12.0744 12.6652 12.8216 11.8836 13.3383 10.8962C13.4681 10.6742 13.6542 10.513 13.8967 10.4125C14.1391 10.312 14.3779 10.3151 14.6129 10.4219C14.8594 10.5197 15.0279 10.6828 15.1183 10.9113C15.2087 11.1397 15.2007 11.3677 15.0945 11.5952C14.4308 12.9438 13.4582 14.0151 12.1767 14.8091C10.8952 15.603 9.48726 16 7.95291 16Z" fill="url(#paint0_linear_204_1687)"/>
  <defs>
    <linearGradient id="paint0_linear_204_1687" x1="2.60002" y1="2.63998" x2="15.36" y2="14.96" gradientUnits="userSpaceOnUse">
      <stop stop-color="#18A1CC"/>
      <stop offset="1" stop-color="#92D1FF"/>
    </linearGradient>
  </defs>
</svg>