<svg width="73" height="72" viewBox="0 0 73 72" fill="none" xmlns="http://www.w3.org/2000/svg">
<rect x="0.5" width="72" height="72" rx="36" fill="#E6F7FF"/>
<path d="M49.8333 22.6667H23.1666C21.3333 22.6667 19.85 24.1667 19.85 26L19.8333 46C19.8333 47.8334 21.3333 49.3334 23.1666 49.3334H49.8333C51.6666 49.3334 53.1666 47.8334 53.1666 46V26C53.1666 24.1667 51.6666 22.6667 49.8333 22.6667ZM49.1666 29.75L37.3833 37.1167C36.85 37.45 36.15 37.45 35.6166 37.1167L23.8333 29.75C23.6662 29.6562 23.5198 29.5295 23.4031 29.3774C23.2864 29.2254 23.2018 29.0513 23.1543 28.8656C23.1068 28.68 23.0975 28.4866 23.1269 28.2972C23.1563 28.1078 23.2239 27.9264 23.3254 27.7639C23.427 27.6013 23.5605 27.4611 23.7179 27.3517C23.8752 27.2422 24.0531 27.1659 24.2408 27.1272C24.4285 27.0885 24.6221 27.0883 24.8099 27.1266C24.9977 27.1649 25.1758 27.2409 25.3333 27.35L36.5 34.3334L47.6666 27.35C47.8242 27.2409 48.0023 27.1649 48.1901 27.1266C48.3778 27.0883 48.5714 27.0885 48.7592 27.1272C48.9469 27.1659 49.1248 27.2422 49.2821 27.3517C49.4394 27.4611 49.5729 27.6013 49.6745 27.7639C49.7761 27.9264 49.8436 28.1078 49.8731 28.2972C49.9025 28.4866 49.8932 28.68 49.8457 28.8656C49.7982 29.0513 49.7136 29.2254 49.5968 29.3774C49.4801 29.5295 49.3338 29.6562 49.1666 29.75Z" fill="#40A9FF"/>
</svg>
